<svg width="960" height="164" viewBox="0 0 960 164" fill="none" xmlns="http://www.w3.org/2000/svg">
<path fill-rule="evenodd" clip-rule="evenodd" d="M0 0L23.2 13.6667C45.6 27.3333 91.2 54.6667 136.8 68.3333C183.2 82 228.8 82 274.4 82C320 82 365.6 82 411.2 61.5C456.8 41 503.2 0 548.8 3.41667C594.4 6.83333 640 54.6667 685.6 58.0833C731.2 61.5 776.8 20.5 823.2 6.83333C868.8 -6.83333 914.4 6.83333 936.8 13.6667L960 20.5V164H936.8C914.4 164 868.8 164 823.2 164C776.8 164 731.2 164 685.6 164C640 164 594.4 164 548.8 164C503.2 164 456.8 164 411.2 164C365.6 164 320 164 274.4 164C228.8 164 183.2 164 136.8 164C91.2 164 45.6 164 23.2 164H0V0Z" fill="#E0E0E0"/>
</svg>
