<svg width="960" height="120" viewBox="0 0 960 120" fill="none" xmlns="http://www.w3.org/2000/svg">
<path fill-rule="evenodd" clip-rule="evenodd" d="M0 4.1329L32 15.7196C64 27.3063 128 50.4797 192 42.7553C256 35.0308 320 -3.59157 384 0.270667C448 4.1329 512 50.4797 576 58.2042C640 65.9287 704 35.0308 768 23.4441C832 11.8574 896 19.5819 928 23.4441L960 27.3063V120H928C896 120 832 120 768 120C704 120 640 120 576 120C512 120 448 120 384 120C320 120 256 120 192 120C128 120 64 120 32 120H0V4.1329Z" fill="#031A3B"/>
</svg>
