<svg width="21" height="31" viewBox="0 0 21 31" fill="none" xmlns="http://www.w3.org/2000/svg">
<path d="M0 4.30556C0 1.92766 2.04392 0 4.56522 0C7.08652 0 9.13043 1.92766 9.13043 4.30556C9.13043 5.22857 8.82247 6.08374 8.29817 6.78468C7.59168 7.72917 6.84783 8.74691 6.84783 9.90278V10.6428C6.84783 11.3407 7.27007 11.962 7.79331 12.4555C8.31656 12.949 8.97538 13.3472 9.71536 13.3472H10.5C11.7256 13.3472 12.8047 12.6457 13.8062 11.9794C14.5494 11.4849 15.4561 11.1944 16.4348 11.1944C18.9561 11.1944 21 13.1221 21 15.5C21 16.423 20.692 17.2782 20.1677 17.9791C19.4613 18.9236 18.7174 19.9414 18.7174 21.0972C18.7174 22.2531 19.4613 23.2708 20.1677 24.2153C20.692 24.9163 21 25.7714 21 26.6944C21 29.0723 18.9561 31 16.4348 31C13.9135 31 11.8696 29.0723 11.8696 26.6944C11.8696 25.7714 12.1775 24.9163 12.7018 24.2153C13.4083 23.2708 14.1522 22.2531 14.1522 21.0972V20.3572C14.1522 19.6593 13.7299 19.038 13.2067 18.5445C12.6834 18.051 12.0246 17.6528 11.2846 17.6528H10.5C9.27442 17.6528 8.19531 18.3543 7.19385 19.0206C6.45065 19.5151 5.5439 19.8056 4.56522 19.8056C2.04392 19.8056 0 17.8779 0 15.5C0 14.577 0.30796 13.7218 0.832261 13.0209C1.53875 12.0764 2.28261 11.0586 2.28261 9.90278C2.28261 8.74691 1.53875 7.72917 0.832261 6.78468C0.30796 6.08374 0 5.22857 0 4.30556Z" fill="#2B7FFF"/>
</svg>
